<?xml version="1.0" encoding="UTF-8" standalone="no"?>
<!DOCTYPE svg PUBLIC "-//W3C//DTD SVG 1.1//EN" "http://www.w3.org/Graphics/SVG/1.1/DTD/svg11.dtd">
<svg width="100%" height="100%" viewBox="0 0 2043 334" version="1.1" xmlns="http://www.w3.org/2000/svg" xmlns:xlink="http://www.w3.org/1999/xlink" xml:space="preserve" xmlns:serif="http://www.serif.com/" style="fill-rule:evenodd;clip-rule:evenodd;stroke-linejoin:round;stroke-miterlimit:2;">
    <g transform="matrix(1,0,0,1,-218.773472,-1587.407383)">
        <g transform="matrix(4.166667,0,0,4.166667,533.546205,1629.960486)">
            <path d="M0,62.234C-3.944,67.639 -13.988,70.136 -20.527,66.504C-30.514,60.943 -35.097,48.998 -43.566,29.45C-46.119,23.548 -45.509,28.173 -44.715,32.769C-41.409,51.864 -40.757,59.156 -52.588,66.461C-62.859,72.803 -76.69,63.653 -75.47,49.466C-74.477,37.876 -65.824,33.152 -59.653,25.08C-55.737,19.959 -53.099,12.965 -50.545,7.546C-47.282,0.567 -43.282,-10.569 -33.905,-9.548C-32.813,-9.42 -31.89,-8.739 -31.394,-7.76C-22.584,9.348 -19.222,23.804 -3.873,40.629C-0.468,44.36 1.787,49.112 2.043,54.162C2.199,57.17 1.674,59.936 -0.014,62.248L0,62.234Z" style="fill:white;fill-rule:nonzero;"/>
        </g>
        <g transform="matrix(4.166667,0,0,4.166667,554.647872,1687.472986)">
            <path d="M0,32.883C0.553,29.705 2.014,26.811 2.795,23.719C3.915,19.477 4.015,13.164 4.086,8.497C4.213,1.177 1.986,-5.774 4.795,-12.853C7.263,-19.209 13.888,-22.188 20.244,-20.599C23.478,-19.875 26.386,-17.662 28.699,-15.336C34.756,-9.477 39.821,-2.597 45.311,3.83C50.701,9.901 55.993,15.718 62.008,21.321C63.37,22.47 65.214,24.088 66.944,24.215C71.995,23.563 62.845,13.264 61.554,11.434C55.198,3.901 50.105,-8.228 57.383,-16.797C64.533,-25.053 80.052,-21.634 84.195,-9.846C85.954,-5.363 85.67,-0.667 84.706,3.943C83.727,8.596 82.521,13.632 82.464,18.371C82.067,26.428 84.464,34.415 83.783,42.459C83.542,52.815 72.236,57.936 63.27,53.723C52.631,48.318 44.842,39.224 36.189,31.067C31.536,26.4 27.096,21.605 23.095,16.995C22.031,15.633 17.506,11.15 20.343,15.916C26.5,24.967 35.777,35.607 31.28,47.225C28.103,53.751 15.704,56.375 8.058,53.042C0.525,49.807 -1.816,40.444 -0.085,33.138L-0.043,32.883L0,32.883Z" style="fill:white;fill-rule:nonzero;"/>
        </g>
        <g transform="matrix(4.166667,0,0,4.166667,1988.808705,1921.66007)">
            <path d="M0,-76.974C5.022,-76.336 9.178,-72.434 10.824,-67.824C13.307,-61.539 11.689,-53.34 14.073,-46.729C16.527,-38.983 27.933,-37.054 33.621,-42.005C40.955,-48.573 35.976,-62.263 40.402,-70.15C43.693,-77.017 54.049,-79.414 59.71,-73.91C65.313,-68.661 64.632,-60.121 65.044,-53.099C65.356,-42.743 65.654,-32.217 65.285,-21.974C64.987,-15.023 64.05,-6.497 57.227,-2.738C53.085,-0.383 47.382,-0.709 43.835,-3.674C35.82,-9.717 41.977,-23.577 33.437,-29.195C27.663,-32.784 17.605,-31.465 14.612,-24.499C12.129,-18.953 13.363,-12.001 9.675,-6.838C5.504,0.17 -5.419,2.44 -10.881,-4.44C-14.356,-8.554 -15.051,-14.271 -15.307,-19.463C-15.747,-31.621 -15.108,-44.062 -14.782,-56.276C-14.952,-65.285 -11.562,-77.797 -0.255,-77.002L0.014,-76.974L0,-76.974Z" style="fill:white;fill-rule:nonzero;"/>
        </g>
        <g transform="matrix(4.166667,0,0,4.166667,1791.148288,1916.045486)">
            <path d="M0,-78.563C8.001,-77.4 16.796,-75.456 22.882,-69.966C32.685,-61.582 26.826,-46.687 13.519,-47.084C2.241,-47.084 -6.653,-55.269 -17.662,-56.589C-30.883,-57.525 -31.862,-46.871 -17.52,-46.474C-2.837,-45.694 14.215,-45.183 24.216,-33.38C28.77,-28.443 29.677,-20.811 26.173,-15.094C18.868,-4.54 4.823,-0.341 -7.873,0.383C-20.896,0.837 -37.579,-1.802 -46.133,-12.399C-49.637,-17.038 -49.382,-23.79 -44.459,-27.252C-40.558,-30.018 -33.806,-30.018 -28.954,-28.94C-20.513,-26.854 -14.413,-21.833 -5.76,-20.74C-0.213,-19.988 7.377,-20.088 9.108,-25.734C9.349,-36.203 -9.42,-33.579 -16.796,-35.068C-27.195,-36.529 -40.218,-37.877 -46.105,-47.339C-52.943,-60.192 -41.197,-72.037 -28.968,-75.712C-19.946,-78.478 -9.618,-79.4 -0.27,-78.591L0.014,-78.563L0,-78.563Z" style="fill:white;fill-rule:nonzero;"/>
        </g>
        <g transform="matrix(4.166667,0,0,4.166667,1342.156622,1898.905903)">
            <path d="M0,-72.279C9.249,-70.875 10.143,-62.093 10.115,-53.837C10.654,-45.042 9.335,-35.026 11.448,-26.983C12.626,-22.571 15.647,-18.627 20.57,-17.762C26.5,-16.613 35.238,-18.13 37.139,-24.018C43.452,-43.609 14.739,-37.296 23.776,-60.59C31.692,-78.79 56.801,-73.754 56.773,-53.922C56.901,-44.318 52.716,-35.892 52.702,-26.401C52.475,-20.812 52.432,-14.783 49.425,-9.832C44.459,-1.717 35.664,3.064 25.464,4.014C2.44,6.511 -17.094,-5.647 -17.321,-29.196C-17.619,-34.288 -17.662,-40.048 -17.591,-45.396C-17.477,-58.348 -18.215,-74.35 -0.255,-72.307L0,-72.265L0,-72.279Z" style="fill:white;fill-rule:nonzero;"/>
        </g>
        <g transform="matrix(4.166667,0,0,4.166667,1097.209122,1876.736736)">
            <path d="M0,-53.056C-5.575,-54.843 -10.484,-49.793 -12.626,-45.055C-17.165,-34.813 -17.038,-21.761 -13.633,-11.249C-8.242,3.561 3.192,2.469 8.483,-11.746C12.782,-22.84 12.768,-47.41 0.227,-52.971L0,-53.042L0,-53.056ZM5.221,-65.696C41.963,-58.206 52.985,-12.086 16.924,6.058C-6.199,17.846 -38.827,5.206 -43.027,-21.563C-47.751,-47.665 -20.428,-70.902 4.923,-65.753L5.221,-65.696Z" style="fill:white;fill-rule:nonzero;"/>
        </g>
    </g>
</svg>
